<svg xmlns="http://www.w3.org/2000/svg" width="64" height="64" viewBox="0 0 64 64"><g class="nc-icon-wrapper" fill="#ffffff"><path d="M7.578,7.53,6.116,9.189a1.107,1.107,0,0,0,.223,1.656l6.537,4.289a1.106,1.106,0,0,0,1.448-1.643L9.249,7.544A1.107,1.107,0,0,0,7.578,7.53Z" data-color="color-2"/> <path d="M3,17.18a1.105,1.105,0,0,0-1.487.761l-.53,2.147a1.106,1.106,0,0,0,.963,1.365l7.78.779a1.105,1.105,0,0,0,.524-2.125Z" data-color="color-2"/> <path d="M18.664,1.13a1.1,1.1,0,0,0-.917-.056l-2.063.8a1.1,1.1,0,0,0-.568,1.571l3.813,6.825a1.106,1.106,0,0,0,2.043-.787l-1.749-7.62A1.106,1.106,0,0,0,18.664,1.13Z" data-color="color-2"/> <path d="M32.949,16.08,44.928,28.058c-.289-1.893-.5-3.413-.533-3.716a5.886,5.886,0,0,1,.81-3.8l-9.67-9.669a2.962,2.962,0,0,0-4.395.227,3.052,3.052,0,0,0,.169,3.9A4.943,4.943,0,0,1,32.949,16.08Z" fill="#ffffff"/> <path d="M50.477,18.191a5.428,5.428,0,0,1,4.241,4.159,93.649,93.649,0,0,0,3.545,11.119c.636,1.749,1.237,3.4,1.784,5.036a18.511,18.511,0,0,1,.91,7.178,16.5,16.5,0,0,0,1.193-13.17c-1.735-5.188-4.2-11.04-5.385-16.355a3.26,3.26,0,1,0-6.386,1.31C50.385,17.519,50.42,17.784,50.477,18.191Z" fill="#ffffff"/> <path d="M23.73,18.6l.791.791a4.81,4.81,0,0,1,1.071-2.931,4.976,4.976,0,0,1,2.236-1.561l-1.512-1.512a2.963,2.963,0,0,0-4.395.227,3.052,3.052,0,0,0,.168,3.9A4.945,4.945,0,0,1,23.73,18.6Z" fill="#ffffff"/> <path d="M49.331,20.11a3.379,3.379,0,0,0-2.952,3.984c.03.243.692,5.182,1.407,8.873a.3.3,0,0,1-.51.268L31.535,17.494a2.963,2.963,0,0,0-4.395.227,3.079,3.079,0,0,0,.324,4.083l9.519,9.519A1.185,1.185,0,0,1,35.307,33L22.316,20.009a2.963,2.963,0,0,0-4.395.226,3.08,3.08,0,0,0,.324,4.084L31.116,37.19a1.185,1.185,0,0,1-1.676,1.676L17.407,26.833a3.08,3.08,0,0,0-4.083-.325,2.963,2.963,0,0,0-.227,4.4L25.25,43.057a1.185,1.185,0,0,1-1.677,1.676L15.731,36.89a3.08,3.08,0,0,0-4.084-.324,2.963,2.963,0,0,0-.226,4.395L21.729,51.27l6.879,6.874a16.6,16.6,0,0,0,23.465,0l2.061-2.06A16.544,16.544,0,0,0,58.15,39.14c-1.735-5.189-4.2-11.041-5.385-16.356A3.355,3.355,0,0,0,49.331,20.11Z" fill="#ffffff"/></g></svg>