<svg xmlns="http://www.w3.org/2000/svg" width="19.888" height="19.4" viewBox="0 0 19.888 19.4"><g transform="translate(0 0)"><path d="M9.944.4a9.956,9.956,0,0,0-3.17,19.39c.5.062.684-.186.684-.5V17.615C4.661,18.237,4.1,16.31,4.1,16.31a2.554,2.554,0,0,0-1.119-1.429c-.932-.621.062-.621.062-.621a2.166,2.166,0,0,1,1.554.994,2.161,2.161,0,0,0,2.921.808,2.146,2.146,0,0,1,.621-1.305C5.9,14.508,3.6,13.638,3.6,9.847A3.933,3.933,0,0,1,4.6,7.174a3.367,3.367,0,0,1,.124-2.61s.808-.249,2.735.994a8.271,8.271,0,0,1,2.486-.311,10.891,10.891,0,0,1,2.486.311C14.356,4.253,15.164,4.5,15.164,4.5a3.707,3.707,0,0,1,.124,2.61,3.82,3.82,0,0,1,.994,2.672c0,3.791-2.3,4.661-4.537,4.91a2.374,2.374,0,0,1,.684,1.864v2.735c0,.249.186.559.684.5A9.956,9.956,0,0,0,9.944.4Z" transform="translate(0 -0.4)" fill="#fff" fill-rule="evenodd"/></g></svg>