<svg xmlns="http://www.w3.org/2000/svg" width="48" height="48" viewBox="0 0 48 48"><title>passenger</title><g fill="#656565"><circle cx="31" cy="6" r="5" fill="#656565"></circle><path d="M22.429,19.76l.643-3.555a5.931,5.931,0,0,1,.176-.768l-5.274,2.637a2,2,0,0,0-.964,1.05L14.967,24.26a1.494,1.494,0,0,0,2.775,1.107l1.912-4.78Z" fill="#656565"></path><path d="M36.2,32.4l-4.754-3.565-1.72,5.3L33,36v8a2,2,0,0,0,4,0V34A2,2,0,0,0,36.2,32.4Z" fill="#656565"></path><path d="M44.083,19.083a1.5,1.5,0,0,0-1.95-.836h0L37.365,20.12,32,14.375a3.969,3.969,0,0,0-6.947,2.136S20,44.4,20,45a2,2,0,0,0,3.92.53L32.1,20.33l3.848,2.63a2,2,0,0,0,1.871.206l5.423-2.134A1.5,1.5,0,0,0,44.083,19.083Z" fill="#656565"></path><circle cx="10" cy="45" r="2" data-color="color-2"></circle><path d="M16.362,28.287a3.137,3.137,0,0,1-1.693-.455l-1,3-4.1-1.367a2,2,0,0,0-2.53,1.264l-3.667,11a2,2,0,0,0,1.264,2.53l1.4.465a3.977,3.977,0,0,1,6.145-3.082l4.459-13.381C16.542,28.274,16.453,28.287,16.362,28.287Z" data-color="color-2"></path></g></svg>