<svg xmlns="http://www.w3.org/2000/svg" width="24" height="19.4" viewBox="0 0 24 19.4"><g transform="translate(0 0)"><path d="M24,6.85a10.96,10.96,0,0,1-2.85.8,4.825,4.825,0,0,0,2.15-2.7,10.836,10.836,0,0,1-3.15,1.2,4.984,4.984,0,0,0-3.6-1.55,4.908,4.908,0,0,0-4.9,4.9,3.9,3.9,0,0,0,.15,1.1A14.009,14.009,0,0,1,1.65,5.45,5.117,5.117,0,0,0,1,7.9,4.9,4.9,0,0,0,3.2,12a5.785,5.785,0,0,1-2.25-.6v.05A4.94,4.94,0,0,0,4.9,16.3a5.45,5.45,0,0,1-1.3.15,6.126,6.126,0,0,1-.95-.1,4.9,4.9,0,0,0,4.6,3.4,10,10,0,0,1-6.1,2.1A8.475,8.475,0,0,1,0,21.8,13.914,13.914,0,0,0,7.55,24a13.906,13.906,0,0,0,14-14V9.35A8.979,8.979,0,0,0,24,6.85Z" transform="translate(0 -4.6)" fill="#fff"/></g></svg>